<svg width="26" height="26" viewBox="0 0 26 26" fill="none" xmlns="http://www.w3.org/2000/svg">
<path d="M21.125 7.3125H4.875C3.52881 7.3125 2.4375 8.40381 2.4375 9.75V19.5C2.4375 20.8462 3.52881 21.9375 4.875 21.9375H21.125C22.4712 21.9375 23.5625 20.8462 23.5625 19.5V9.75C23.5625 8.40381 22.4712 7.3125 21.125 7.3125Z" stroke="black" stroke-width="1.5" stroke-linejoin="round"/>
<path d="M20.8894 7.31266V5.78922C20.8893 5.41558 20.8067 5.04656 20.6475 4.70851C20.4884 4.37046 20.2566 4.0717 19.9686 3.83355C19.6807 3.5954 19.3438 3.42373 18.9819 3.33078C18.62 3.23784 18.242 3.22592 17.875 3.29586L4.50125 5.57848C3.92048 5.68916 3.39653 5.99904 3.01978 6.45468C2.64303 6.91032 2.4371 7.48315 2.4375 8.07438V10.5627" stroke="black" stroke-width="1.5" stroke-linejoin="round"/>
<path d="M18.6875 16.25C18.3661 16.25 18.0519 16.1547 17.7847 15.9761C17.5175 15.7976 17.3092 15.5438 17.1862 15.2469C17.0632 14.9499 17.031 14.6232 17.0937 14.308C17.1564 13.9928 17.3112 13.7032 17.5385 13.476C17.7657 13.2487 18.0553 13.0939 18.3705 13.0312C18.6857 12.9685 19.0124 13.0007 19.3094 13.1237C19.6063 13.2467 19.8601 13.455 20.0386 13.7222C20.2172 13.9894 20.3125 14.3036 20.3125 14.625C20.3125 15.056 20.1413 15.4693 19.8365 15.774C19.5318 16.0788 19.1185 16.25 18.6875 16.25Z" fill="black"/>
</svg>
